<svg width="65" height="65" viewBox="0 0 65 65" fill="none" xmlns="http://www.w3.org/2000/svg">
<mask id="mask0_693_180" style="mask-type:alpha" maskUnits="userSpaceOnUse" x="0" y="0" width="65" height="65">
<rect x="65" y="65" width="65" height="65" transform="rotate(-180 65 65)" fill="#D9D9D9"/>
</mask>
<g mask="url(#mask0_693_180)">
<path d="M23 32.5L33.5 19.5L35.401 21.7165L24.5703 32.5002L35.401 43.3309L34.5 44L23 32.5ZM32.4938 6.97948C36.0215 6.97948 39.3407 7.65261 42.4514 8.99888C45.5621 10.3451 48.2682 12.1754 50.5697 14.4897C52.8713 16.804 54.6885 19.5092 56.0214 22.6054C57.3543 25.7016 58.0208 28.9978 58.0208 32.494C58.0208 36.0217 57.3533 39.3409 56.0183 42.4516C54.6833 45.5623 52.8644 48.2684 50.5613 50.57C48.2583 52.8715 45.5544 54.6887 42.4495 56.0216C39.3447 57.3545 36.0302 58.021 32.5062 58.021C29.0011 58.021 25.6988 57.3535 22.5994 56.0185C19.5 54.6836 16.7939 52.8646 14.481 50.5616C12.1682 48.2586 10.3397 45.5547 8.99552 42.4498C7.65133 39.3449 6.97923 36.0305 6.97923 32.5065C6.97923 29.0065 7.65237 25.7056 8.99863 22.6036C10.3449 19.5015 12.1751 16.7941 14.4894 14.4813C16.8037 12.1685 19.5076 10.34 22.6012 8.99576C25.6948 7.65157 28.9923 6.97948 32.4938 6.97948Z" fill="#DDD7D0"/>
</g>
<mask id="mask1_693_180" style="mask-type:alpha" maskUnits="userSpaceOnUse" x="0" y="0" width="65" height="65">
<rect x="65" y="65" width="65" height="65" transform="rotate(-180 65 65)" fill="#D9D9D9"/>
</mask>
<g mask="url(#mask1_693_180)">
<path d="M28.7734 32.5002L37.4453 23.8284L35.401 21.7165L24.5703 32.5002L35.401 43.3309L37.4453 41.1721L28.7734 32.5002ZM32.4938 6.97948C36.0215 6.97948 39.3407 7.65261 42.4514 8.99888C45.5621 10.3451 48.2682 12.1754 50.5697 14.4897C52.8713 16.804 54.6885 19.5092 56.0214 22.6054C57.3543 25.7016 58.0208 28.9978 58.0208 32.494C58.0208 36.0217 57.3533 39.3409 56.0183 42.4516C54.6833 45.5623 52.8644 48.2684 50.5613 50.57C48.2583 52.8715 45.5544 54.6887 42.4495 56.0216C39.3446 57.3545 36.0302 58.021 32.5062 58.021C29.0011 58.021 25.6988 57.3535 22.5994 56.0185C19.5 54.6836 16.7939 52.8646 14.481 50.5616C12.1682 48.2586 10.3397 45.5547 8.99552 42.4498C7.65133 39.3449 6.97923 36.0305 6.97923 32.5065C6.97923 29.0065 7.65237 25.7056 8.99863 22.6036C10.3449 19.5015 12.1751 16.7941 14.4894 14.4813C16.8037 12.1685 19.5076 10.34 22.6012 8.99576C25.6948 7.65157 28.9923 6.97948 32.4938 6.97948Z" fill="#1C1B1F"/>
</g>
</svg>
