<svg width="65" height="65" viewBox="0 0 65 65" fill="none" xmlns="http://www.w3.org/2000/svg">
<mask id="mask0_693_173" style="mask-type:alpha" maskUnits="userSpaceOnUse" x="0" y="0" width="65" height="65">
<rect width="65" height="65" fill="#D9D9D9"/>
</mask>
<g mask="url(#mask0_693_173)">
<path d="M41.5 32.4935L30.5 44L29.599 43.2835L40.4297 32.4998L29.599 21.6691V21L41.5 32.4935ZM32.5063 58.0205C28.9786 58.0205 25.6594 57.3474 22.5487 56.0011C19.438 54.6549 16.7319 52.8246 14.4303 50.5103C12.1288 48.196 10.3115 45.4908 8.97864 42.3946C7.64573 39.2984 6.97928 36.0022 6.97928 32.506C6.97928 28.9783 7.64677 25.6591 8.98175 22.5484C10.3167 19.4377 12.1357 16.7316 14.4387 14.43C16.7417 12.1285 19.4456 10.3113 22.5505 8.97836C25.6554 7.64546 28.9698 6.979 32.4938 6.979C35.9989 6.979 39.3012 7.6465 42.4006 8.98148C45.5 10.3164 48.2062 12.1354 50.519 14.4384C52.8318 16.7414 54.6603 19.4453 56.0045 22.5502C57.3487 25.6551 58.0208 28.9695 58.0208 32.4935C58.0208 35.9935 57.3477 39.2944 56.0014 42.3964C54.6552 45.4985 52.8249 48.2059 50.5106 50.5187C48.1963 52.8315 45.4924 54.66 42.3988 56.0042C39.3052 57.3484 36.0077 58.0205 32.5063 58.0205Z" fill="#DDD7D0"/>
</g>
<mask id="mask1_693_173" style="mask-type:alpha" maskUnits="userSpaceOnUse" x="0" y="0" width="65" height="65">
<rect width="65" height="65" fill="#D9D9D9"/>
</mask>
<g mask="url(#mask1_693_173)">
<path d="M36.2266 32.4998L27.5548 41.1716L29.599 43.2835L40.4297 32.4998L29.599 21.6691L27.5548 23.8279L36.2266 32.4998ZM32.5063 58.0205C28.9786 58.0205 25.6594 57.3474 22.5487 56.0011C19.438 54.6549 16.7319 52.8246 14.4303 50.5103C12.1288 48.196 10.3115 45.4908 8.97864 42.3946C7.64573 39.2984 6.97928 36.0022 6.97928 32.506C6.97928 28.9783 7.64677 25.6591 8.98175 22.5484C10.3167 19.4377 12.1357 16.7316 14.4387 14.43C16.7417 12.1285 19.4456 10.3113 22.5505 8.97836C25.6554 7.64546 28.9698 6.979 32.4938 6.979C35.9989 6.979 39.3012 7.6465 42.4006 8.98148C45.5 10.3164 48.2062 12.1354 50.519 14.4384C52.8318 16.7414 54.6603 19.4453 56.0045 22.5502C57.3487 25.6551 58.0208 28.9695 58.0208 32.4935C58.0208 35.9935 57.3477 39.2944 56.0014 42.3964C54.6552 45.4985 52.8249 48.2059 50.5106 50.5187C48.1963 52.8315 45.4924 54.66 42.3988 56.0042C39.3052 57.3484 36.0077 58.0205 32.5063 58.0205Z" fill="#1C1B1F"/>
</g>
</svg>
