<svg width="115" height="114" viewBox="0 0 115 114" fill="none" xmlns="http://www.w3.org/2000/svg">
<path d="M45.7742 4.33693L48.9841 14.4971L44.8474 15.804C43.7637 16.1464 42.7466 16.2283 41.7962 16.0496C40.8392 15.8837 40.0126 15.4904 39.3163 14.8697C38.62 14.2489 38.1144 13.4402 37.7995 12.4435C37.4846 11.4469 37.4338 10.4945 37.6471 9.58634C37.8604 8.67823 38.3095 7.87653 38.9944 7.18124C39.6727 6.49868 40.5538 5.98621 41.6375 5.64382L45.7742 4.33693ZM44.9936 5.6052L41.9891 6.55441C41.0892 6.83872 40.3652 7.25899 39.8173 7.81522C39.2627 8.38418 38.8994 9.03639 38.7274 9.77185C38.5584 10.517 38.6023 11.296 38.8591 12.1088C39.1189 12.9313 39.5305 13.5941 40.0939 14.0972C40.6572 14.6003 41.3278 14.9206 42.1055 15.058C42.8766 15.2081 43.7121 15.1411 44.612 14.8568L47.6165 13.9075L44.9936 5.6052Z" fill="#DDD7D0"/>
<path d="M27.9437 12.0339C28.6398 11.5779 29.3455 11.3219 30.0609 11.2658C30.7818 11.2182 31.4576 11.3518 32.0884 11.6665C32.7246 11.9897 33.2596 12.4824 33.6933 13.1446C34.127 13.8067 34.3706 14.4842 34.424 15.177C34.469 15.8754 34.3399 16.5301 34.0365 17.1413C33.7303 17.7664 33.2673 18.2819 32.6476 18.6878C32.0194 19.0993 31.3689 19.3192 30.696 19.3475C30.0201 19.3898 29.3725 19.2438 28.7532 18.9095C28.1395 18.5836 27.613 18.0854 27.1737 17.4147C27.1459 17.3723 27.1196 17.3228 27.0947 17.2663C27.0669 17.2239 27.0364 17.1772 27.003 17.1262L32.8222 13.3148L33.2642 13.9897L27.9289 17.4842L28.1103 16.9833C28.4272 17.4671 28.8141 17.8263 29.271 18.0608C29.7249 18.3094 30.1997 18.423 30.6952 18.4017C31.1907 18.3804 31.672 18.2169 32.1389 17.9111C32.5973 17.6108 32.9395 17.2351 33.1655 16.7838C33.3915 16.3324 33.4813 15.8491 33.4348 15.3336C33.3884 14.8182 33.2039 14.3143 32.8814 13.8219L32.7897 13.6818C32.4561 13.1725 32.051 12.7949 31.5745 12.5489C31.0951 12.317 30.5837 12.2214 30.0401 12.262C29.4936 12.3167 28.9615 12.5136 28.4437 12.8528C28.0362 13.1196 27.7057 13.4392 27.4522 13.8115C27.1901 14.1893 27.0291 14.6102 26.969 15.0741L26.076 14.822C26.1396 14.2709 26.3352 13.7546 26.6628 13.2731C26.9819 12.7972 27.4089 12.3841 27.9437 12.0339ZM34.1302 19.1179L33.4199 21.8394L32.2102 22.6317L33.2389 19.7017L34.1302 19.1179Z" fill="#DDD7D0"/>
<path d="M20.5921 17.9795L26.916 24.3777C27.4153 24.883 27.6704 25.437 27.6813 26.0398C27.6921 26.6426 27.4196 27.2187 26.8639 27.768C26.6474 27.982 26.4095 28.16 26.1504 28.302C25.8912 28.444 25.6324 28.5214 25.374 28.5342L25.0668 27.7036C25.2678 27.6905 25.4618 27.6342 25.649 27.5348C25.8433 27.4427 26.0234 27.3146 26.1894 27.1505C26.5142 26.8295 26.674 26.4932 26.6689 26.1415C26.6638 25.7899 26.4864 25.4372 26.1369 25.0836L25.2809 24.2175L24.9061 23.8816L19.8235 18.7392L20.5921 17.9795ZM26.5961 22.0186L27.2274 22.6574L23.7089 26.135L23.0776 25.4962L26.5961 22.0186Z" fill="#DDD7D0"/>
<path d="M15.0642 24.1518L21.4602 28.9428L20.8123 29.8078L14.4163 25.0168L15.0642 24.1518ZM22.5449 30.44C22.6788 30.2613 22.8522 30.1567 23.0653 30.1261C23.2784 30.0956 23.4702 30.1442 23.6408 30.2719C23.8113 30.3997 23.9078 30.5671 23.9303 30.7741C23.9609 30.9871 23.9092 31.183 23.7754 31.3617C23.6415 31.5404 23.4721 31.6481 23.2672 31.6847C23.0622 31.7214 22.8745 31.6758 22.7039 31.5481C22.5252 31.4142 22.4206 31.2407 22.39 31.0277C22.3534 30.8227 22.405 30.6268 22.5449 30.44Z" fill="#DDD7D0"/>
<path d="M11.0474 30.2214L20.9268 35.6953L20.403 36.6407L10.5236 31.1667L11.0474 30.2214Z" fill="#DDD7D0"/>
<path d="M6.64138 40.0428C6.90132 39.2523 7.29343 38.6121 7.81773 38.1222C8.35166 37.6355 8.96331 37.3185 9.65265 37.1713C10.3516 37.0273 11.0771 37.0789 11.829 37.3261C12.5809 37.5734 13.1938 37.9512 13.6676 38.4595C14.1382 38.9774 14.4455 39.5699 14.5894 40.2368C14.7397 40.9165 14.6992 41.6082 14.4678 42.3119C14.2333 43.0253 13.8617 43.6028 13.3533 44.0445C12.8513 44.499 12.254 44.7887 11.5614 44.9134C10.8784 45.0413 10.1561 44.9801 9.39451 44.7297C9.34631 44.7138 9.29487 44.6916 9.2402 44.6629C9.192 44.647 9.13898 44.6296 9.08114 44.6106L11.2541 38.0024L12.0205 38.2544L10.0282 44.3131L9.85769 43.8084C10.4072 43.9891 10.9336 44.0287 11.437 43.9271C11.9469 43.8384 12.3889 43.6312 12.763 43.3056C13.1372 42.98 13.4114 42.5521 13.5858 42.0219C13.7569 41.5013 13.7902 40.9941 13.6855 40.5004C13.5808 40.0066 13.3496 39.5727 12.9919 39.1987C12.6341 38.8247 12.1757 38.5458 11.6166 38.3619L11.4575 38.3096C10.8791 38.1194 10.327 38.0767 9.80116 38.1816C9.28177 38.2992 8.82226 38.5433 8.42264 38.914C8.02948 39.2975 7.73622 39.7832 7.54285 40.3713C7.3907 40.834 7.33158 41.2899 7.36549 41.739C7.39623 42.1978 7.53275 42.6273 7.77506 43.0274L6.9197 43.3871C6.62577 42.9166 6.45677 42.391 6.41269 41.8103C6.36545 41.2393 6.44168 40.6501 6.64138 40.0428Z" fill="#DDD7D0"/>
<path d="M4.64173 48.2776L5.35429 48.3415L11.5945 54.2503L11.2102 54.4451L11.6985 49.0024L12.593 49.0826L12.0285 55.3744L11.3311 55.3118L5.07443 49.4168L5.46277 49.1765L4.95407 54.8467L4.05958 54.7664L4.64173 48.2776Z" fill="#DDD7D0"/>
<path d="M6.11428 71.1845C5.88778 70.3838 5.85491 69.6338 6.01565 68.9345C6.18616 68.2324 6.51602 67.6276 7.00523 67.1201C7.5042 66.6099 8.1345 66.247 8.89615 66.0316C9.65779 65.8161 10.3771 65.7867 11.0542 65.9432C11.734 66.1095 12.3199 66.4288 12.8122 66.9012C13.3169 67.3807 13.6701 67.9768 13.8717 68.6896C14.0761 69.4122 14.091 70.0988 13.9165 70.7493C13.7544 71.4068 13.4212 71.9809 12.9167 72.4716C12.4219 72.9596 11.7889 73.3126 11.0175 73.5309C10.9686 73.5447 10.9136 73.555 10.8522 73.5618C10.8034 73.5756 10.7497 73.5908 10.6911 73.6074L8.79765 66.9137L9.57394 66.6941L11.3099 72.8312L10.8863 72.5081C11.4429 72.3506 11.9015 72.0891 12.2621 71.7234C12.6352 71.3648 12.8858 70.9459 13.014 70.4667C13.1421 69.9875 13.1302 69.4794 12.9782 68.9424C12.8291 68.4151 12.5731 67.976 12.2102 67.6252C11.8473 67.2744 11.413 67.0439 10.9073 66.9339C10.4016 66.8238 9.86555 66.8489 9.2992 67.0091L9.13809 67.0547C8.55221 67.2204 8.07059 67.4937 7.69323 67.8747C7.3284 68.2626 7.08395 68.722 6.95989 69.2527C6.84836 69.7905 6.87684 70.3572 7.04533 70.9528C7.17791 71.4215 7.38382 71.8326 7.66307 72.186C7.94508 72.5491 8.2984 72.8288 8.72303 73.0251L8.21499 73.8016C7.7082 73.5758 7.2742 73.2346 6.91298 72.7778C6.55453 72.3308 6.28829 71.7997 6.11428 71.1845Z" fill="#DDD7D0"/>
<path d="M18.4628 79.4339C18.7893 79.9954 18.9653 80.5504 18.9909 81.099C19.0303 81.6513 18.8995 82.1734 18.5987 82.6653C18.3029 83.166 17.8216 83.6102 17.1549 83.9979L13.1415 86.3317L12.5982 85.3974L16.5195 83.1172C17.2476 82.6938 17.6888 82.1907 17.843 81.608C18.011 81.029 17.9038 80.4105 17.5212 79.7526C17.2355 79.2613 16.8847 78.8901 16.4687 78.639C16.0665 78.3916 15.6182 78.2766 15.1236 78.2942C14.643 78.3155 14.1395 78.4792 13.6131 78.7852L9.98132 80.8971L9.43804 79.9629L16.3463 75.9457L16.8667 76.8405L14.9718 77.9423L15.2429 77.591C15.8705 77.5195 16.4649 77.6434 17.0262 77.9627C17.5963 78.2768 18.0751 78.7672 18.4628 79.4339Z" fill="#DDD7D0"/>
<path d="M25.5898 99.2701C25.0302 98.8493 24.6218 98.3455 24.3648 97.7586C24.1139 97.1637 24.0416 96.5253 24.1479 95.8435C24.2543 95.1617 24.5667 94.476 25.085 93.7866C25.6095 93.0891 26.1814 92.5986 26.8008 92.3152C27.4343 92.0298 28.0687 91.9291 28.7039 92.0131C29.339 92.0971 29.9324 92.3464 30.4839 92.7611C31.0922 93.2185 31.532 93.765 31.8032 94.4006C32.0886 95.0341 32.1862 95.6979 32.0961 96.3919C32.0059 97.0859 31.7169 97.7574 31.229 98.4062C30.7472 99.047 30.1825 99.5111 29.5347 99.7985C28.893 100.078 28.2252 100.172 27.5312 100.082C26.8453 99.9982 26.1982 99.7275 25.5898 99.2701ZM22.3385 96.7302L29.1261 87.7028L29.99 88.3523L26.587 92.8782L25.4957 94.0763L24.6112 95.43L23.1658 97.3523L22.3385 96.7302ZM26.1053 98.4579C26.5595 98.7994 27.0413 99.0029 27.5506 99.0685C28.0661 99.126 28.5695 99.0474 29.0609 98.8329C29.5584 98.6102 29.9932 98.2515 30.3652 97.7567C30.7433 97.2539 30.9672 96.7366 31.0368 96.2049C31.1065 95.6733 31.0391 95.1719 30.8347 94.7008C30.6364 94.2216 30.3101 93.8112 29.8559 93.4697C29.4017 93.1282 28.9128 92.9256 28.3893 92.8621C27.8799 92.7965 27.3795 92.871 26.8881 93.0856C26.4048 93.3062 25.9741 93.668 25.596 94.1708C25.224 94.6656 24.9961 95.1798 24.9122 95.7135C24.8426 96.2451 24.9069 96.7506 25.1052 97.2298C25.3177 97.707 25.6511 98.1164 26.1053 98.4579Z" fill="#DDD7D0"/>
<path d="M38.5999 106.302L39.2772 104.671L39.346 104.387L40.4787 101.659C40.7395 101.032 40.7619 100.475 40.5459 99.9897C40.3393 99.5083 39.8892 99.1236 39.1957 98.8355C38.7178 98.637 38.2302 98.5279 37.7329 98.5081C37.2356 98.4884 36.7826 98.5474 36.3737 98.6853L36.2333 97.7534C36.7405 97.5905 37.2916 97.5336 37.8864 97.5829C38.4852 97.6229 39.0751 97.7635 39.6561 98.0048C40.612 98.4019 41.2485 98.9464 41.5654 99.6384C41.8955 100.325 41.8602 101.151 41.4592 102.116L39.5558 106.699L38.5999 106.302ZM36.0263 105.315C35.4734 105.086 35.0277 104.796 34.6894 104.447C34.3642 104.092 34.1601 103.711 34.0769 103.302C33.9976 102.885 34.0455 102.465 34.2206 102.043C34.3802 101.659 34.6133 101.349 34.9198 101.114C35.2396 100.873 35.6446 100.745 36.1348 100.729C36.6382 100.707 37.2414 100.842 37.9443 101.134L40.4887 102.191L40.1792 102.936L37.6629 101.891C36.9507 101.595 36.4014 101.515 36.0152 101.652C35.6383 101.792 35.372 102.049 35.2163 102.424C35.0412 102.846 35.065 103.251 35.288 103.641C35.5109 104.03 35.9175 104.347 36.5079 104.592C37.0702 104.826 37.6054 104.9 38.1135 104.814C38.6348 104.723 39.0904 104.473 39.4803 104.063L39.4191 104.845C39.0292 105.255 38.5397 105.508 37.9504 105.604C37.3706 105.703 36.7292 105.607 36.0263 105.315Z" fill="#DDD7D0"/>
<path d="M48.0893 108.94C47.4394 108.828 46.8399 108.631 46.2911 108.351C45.7439 108.061 45.3296 107.747 45.048 107.41L45.6732 106.653C45.9517 106.949 46.3254 107.229 46.7942 107.496C47.2648 107.752 47.7751 107.928 48.3251 108.023C49.075 108.153 49.6349 108.131 50.0046 107.958C50.3761 107.775 50.5955 107.489 50.6629 107.099C50.7131 106.809 50.657 106.567 50.4946 106.374C50.344 106.173 50.1256 106.007 49.8395 105.875C49.555 105.733 49.233 105.6 48.8734 105.476C48.5138 105.352 48.1559 105.218 47.7998 105.075C47.4536 104.932 47.1435 104.76 46.8694 104.558C46.5971 104.347 46.3893 104.089 46.246 103.786C46.1126 103.485 46.0849 103.11 46.1626 102.66C46.237 102.23 46.4235 101.866 46.7223 101.567C47.021 101.269 47.4168 101.064 47.9096 100.954C48.4142 100.835 49.0014 100.833 49.6714 100.949C50.1814 101.037 50.6793 101.195 51.165 101.424C51.6525 101.642 52.0423 101.889 52.3342 102.166L51.7215 102.941C51.413 102.64 51.0674 102.406 50.6847 102.237C50.3037 102.057 49.9132 101.933 49.5132 101.864C48.8033 101.741 48.2567 101.776 47.8735 101.967C47.502 102.15 47.2835 102.431 47.2178 102.811C47.1659 103.111 47.2153 103.362 47.3659 103.563C47.5265 103.766 47.7482 103.943 48.0309 104.095C48.3253 104.238 48.6473 104.371 48.9969 104.494C49.3565 104.618 49.7086 104.756 50.053 104.908C50.4091 105.052 50.7243 105.225 50.9983 105.427C51.2841 105.62 51.4937 105.867 51.627 106.169C51.772 106.461 51.8074 106.823 51.7331 107.253C51.6536 107.713 51.4544 108.09 51.1357 108.385C50.8286 108.672 50.4137 108.868 49.8909 108.973C49.3798 109.07 48.7793 109.059 48.0893 108.94Z" fill="#DDD7D0"/>
<path d="M64.4623 109.395L62.1109 99.0026L66.3421 98.0453C67.4507 97.7945 68.471 97.7977 69.4032 98.055C70.343 98.3001 71.134 98.761 71.7761 99.4377C72.4182 100.114 72.8546 100.962 73.0852 101.982C73.3159 103.001 73.2871 103.955 72.9988 104.842C72.7105 105.729 72.1961 106.49 71.4556 107.126C70.7228 107.75 69.802 108.187 68.6935 108.438L64.4623 109.395ZM65.3459 108.196L68.4191 107.501C69.3396 107.293 70.0961 106.934 70.6885 106.426C71.2886 105.905 71.705 105.285 71.9378 104.567C72.1683 103.838 72.1896 103.058 72.0015 102.227C71.8111 101.386 71.4562 100.691 70.9368 100.143C70.4173 99.5942 69.7759 99.2192 69.0123 99.0174C68.2564 98.8034 67.4182 98.8006 66.4977 99.0089L63.4245 99.7042L65.3459 108.196Z" fill="#DDD7D0"/>
<path d="M82.8724 103.212C82.1407 103.608 81.4161 103.805 80.6986 103.801C79.9762 103.788 79.3139 103.599 78.7116 103.232C78.1045 102.857 77.6124 102.322 77.2355 101.626C76.8585 100.93 76.6723 100.234 76.6768 99.5394C76.6902 98.8397 76.8735 98.198 77.2268 97.6143C77.5841 97.0169 78.0884 96.5417 78.7398 96.1889C79.4001 95.8313 80.0668 95.6665 80.7397 95.6944C81.4167 95.7086 82.0499 95.9081 82.6391 96.2929C83.2236 96.6688 83.7067 97.2092 84.0885 97.9141C84.1126 97.9587 84.1347 98.0102 84.1548 98.0686C84.179 98.1132 84.2056 98.1623 84.2345 98.2158L78.1177 101.529L77.7335 100.819L83.3417 97.7819L83.1192 98.266C82.8437 97.7574 82.4881 97.3672 82.0524 97.0954C81.6208 96.8098 81.1572 96.657 80.6616 96.6369C80.166 96.6168 79.6728 96.7396 79.182 97.0054C78.7002 97.2664 78.3278 97.6123 78.0649 98.0432C77.8021 98.4741 77.6723 98.9483 77.6756 99.4658C77.6789 99.9833 77.8207 100.501 78.101 101.018L78.1808 101.166C78.4707 101.701 78.8429 102.111 79.2972 102.396C79.7556 102.667 80.2573 102.805 80.8023 102.81C81.3515 102.801 81.8982 102.649 82.4425 102.354C82.8708 102.122 83.2268 101.831 83.5105 101.482C83.8031 101.127 83.9987 100.721 84.0973 100.264L84.9661 100.589C84.8568 101.133 84.6188 101.631 84.2522 102.084C83.8945 102.532 83.4346 102.908 82.8724 103.212ZM77.2983 95.6368L78.2331 92.9839L79.5046 92.2953L78.2352 95.1293L77.2983 95.6368Z" fill="#DDD7D0"/>
<path d="M90.6943 97.9002L84.9261 90.9969C84.4706 90.4518 84.2626 89.8784 84.3021 89.2768C84.3416 88.6752 84.6611 88.1239 85.2607 87.6228C85.4944 87.4276 85.7462 87.2701 86.0163 87.1502C86.2864 87.0303 86.5507 86.9747 86.8093 86.9835L87.0463 87.8368C86.8449 87.8332 86.6468 87.8731 86.452 87.9565C86.2507 88.0321 86.0605 88.1447 85.8814 88.2944C85.531 88.5872 85.3436 88.909 85.3194 89.2599C85.2952 89.6107 85.4425 89.9769 85.7613 90.3585L86.5422 91.2929L86.8876 91.6589L91.5237 97.2073L90.6943 97.9002ZM85.0481 93.3744L84.4723 92.6853L88.2685 89.5132L88.8444 90.2024L85.0481 93.3744Z" fill="#DDD7D0"/>
<path d="M96.7177 92.2104L90.7435 86.9027L91.4613 86.0948L97.4355 91.4025L96.7177 92.2104ZM89.7875 85.3203C89.6392 85.4872 89.4576 85.577 89.2427 85.5897C89.0278 85.6024 88.8407 85.538 88.6814 85.3964C88.5221 85.2549 88.4399 85.08 88.4348 84.8719C88.4221 84.657 88.4899 84.4661 88.6381 84.2992C88.7864 84.1323 88.9642 84.0391 89.1715 84.0197C89.3788 84.0003 89.5621 84.0613 89.7214 84.2029C89.8883 84.3511 89.9781 84.5327 89.9908 84.7476C90.0103 84.9549 89.9425 85.1458 89.7875 85.3203Z" fill="#DDD7D0"/>
<path d="M101.227 86.4971L91.8383 80.2182L92.4391 79.3199L101.828 85.5987L101.227 86.4971Z" fill="#DDD7D0"/>
<path d="M106.437 77.0773C106.112 77.8434 105.667 78.4486 105.104 78.8931C104.531 79.3336 103.895 79.5984 103.196 79.6876C102.488 79.7729 101.769 79.661 101.04 79.3519C100.312 79.0428 99.7325 78.6152 99.3028 78.0691C98.877 77.5137 98.6202 76.8977 98.5324 76.2211C98.4392 75.5313 98.5373 74.8453 98.8266 74.1634C99.1198 73.4721 99.5382 72.9275 100.082 72.5298C100.62 72.1187 101.239 71.8799 101.94 71.8133C102.631 71.7428 103.346 71.8641 104.084 72.1772C104.131 72.197 104.18 72.2234 104.232 72.2566C104.279 72.2764 104.33 72.2982 104.386 72.3219L101.67 78.7259L100.927 78.4109L103.418 72.5394L103.545 73.0566C103.013 72.8307 102.492 72.7474 101.982 72.8065C101.466 72.8524 101.008 73.022 100.608 73.3153C100.208 73.6086 99.8993 74.0122 99.6814 74.526C99.4674 75.0304 99.392 75.5331 99.4551 76.0338C99.5183 76.5346 99.7125 76.9863 100.038 77.3888C100.363 77.7914 100.797 78.1076 101.338 78.3374L101.493 78.4028C102.053 78.6406 102.6 78.7291 103.133 78.6685C103.66 78.5946 104.138 78.3897 104.567 78.0536C104.991 77.7043 105.324 77.2447 105.566 76.6748C105.756 76.2264 105.853 75.777 105.856 75.3266C105.864 74.8668 105.764 74.4275 105.556 74.0085L106.438 73.7214C106.692 74.2149 106.816 74.7527 106.812 75.335C106.811 75.908 106.686 76.4888 106.437 77.0773Z" fill="#DDD7D0"/>
<path d="M109.116 69.038L108.411 68.9148L102.686 62.5062L103.085 62.3441L102.144 67.7272L101.26 67.5726L102.347 61.3498L103.036 61.4704L108.78 67.8667L108.373 68.0737L109.353 62.4657L110.237 62.6203L109.116 69.038Z" fill="#DDD7D0"/>
<path d="M109.559 46.088C109.718 46.9048 109.688 47.6549 109.47 48.3384C109.241 49.0238 108.862 49.599 108.332 50.0639C107.792 50.5308 107.134 50.8398 106.357 50.991C105.58 51.1422 104.861 51.1115 104.199 50.8991C103.536 50.6767 102.978 50.3096 102.527 49.7978C102.064 49.2779 101.762 48.6544 101.62 47.9273C101.477 47.1901 101.519 46.5047 101.748 45.8711C101.964 45.2294 102.344 44.6851 102.888 44.2381C103.421 43.7931 104.082 43.4941 104.868 43.3409C104.918 43.3312 104.974 43.3256 105.036 43.3239C105.086 43.3142 105.14 43.3035 105.2 43.2919L106.529 50.1202L105.737 50.2743L104.519 44.0138L104.914 44.3711C104.346 44.4816 103.867 44.704 103.477 45.0383C103.076 45.3645 102.791 45.7611 102.623 46.2279C102.456 46.6947 102.425 47.2021 102.532 47.7499C102.637 48.2878 102.855 48.7467 103.187 49.1266C103.52 49.5064 103.933 49.7723 104.428 49.9241C104.923 50.076 105.459 50.0957 106.037 49.9833L106.201 49.9513C106.799 49.835 107.302 49.6028 107.709 49.2547C108.105 48.8985 108.387 48.4611 108.555 47.9426C108.711 47.416 108.73 46.8489 108.612 46.2413C108.519 45.7631 108.348 45.3363 108.099 44.9609C107.848 44.5755 107.52 44.2673 107.113 44.0363L107.684 43.3049C108.17 43.5721 108.574 43.9484 108.896 44.4337C109.216 44.909 109.437 45.4604 109.559 46.088Z" fill="#DDD7D0"/>
<path d="M97.9414 36.8375C97.6629 36.2508 97.5338 35.683 97.5541 35.1342C97.5608 34.5805 97.7347 34.0712 98.0755 33.6061C98.412 33.1318 98.9287 32.7293 99.6254 32.3985L103.819 30.4076L104.283 31.3839L100.185 33.3292C99.4242 33.6904 98.9426 34.1549 98.7404 34.7227C98.5246 35.2857 98.5799 35.9109 98.9063 36.5985C99.15 37.1118 99.4687 37.511 99.8623 37.7959C100.242 38.0761 100.68 38.228 101.174 38.2517C101.655 38.2706 102.17 38.1495 102.72 37.8884L106.515 36.0867L106.979 37.0631L99.7596 40.4901L99.3157 39.555L101.296 38.615L100.996 38.9426C100.365 38.9614 99.783 38.7884 99.2503 38.4234C98.7084 38.0629 98.2721 37.5342 97.9414 36.8375Z" fill="#DDD7D0"/>
<path d="M92.4935 16.476C93.0161 16.942 93.381 17.4782 93.5882 18.0844C93.7887 18.6982 93.8075 19.3404 93.6446 20.011C93.4818 20.6815 93.1133 21.3387 92.5392 21.9825C91.9584 22.6339 91.3476 23.0749 90.7068 23.3057C90.0516 23.5373 89.4111 23.5847 88.7851 23.4481C88.1592 23.3114 87.5887 23.0134 87.0737 22.5542C86.5056 22.0477 86.113 21.4664 85.8957 20.8104C85.6642 20.1553 85.6222 19.4856 85.7699 18.8016C85.9176 18.1175 86.2616 17.4725 86.8019 16.8666C87.3355 16.2682 87.937 15.8529 88.6065 15.6205C89.2692 15.3957 89.9426 15.3571 90.6267 15.5048C91.3032 15.6458 91.9255 15.9695 92.4935 16.476ZM95.5217 19.2782L88.0048 27.7081L87.1982 26.9888L90.9668 22.7625L92.1542 21.6596L93.1485 20.3844L94.7491 18.5893L95.5217 19.2782ZM91.9121 17.2424C91.4879 16.8642 91.0248 16.6212 90.5227 16.5134C90.0139 16.4132 89.5056 16.4495 88.998 16.6223C88.4837 16.8026 88.0205 17.1238 87.6086 17.5859C87.1898 18.0554 86.9236 18.5522 86.8099 19.0762C86.6961 19.6002 86.7214 20.1055 86.8859 20.592C87.0435 21.0861 87.3344 21.5222 87.7586 21.9005C88.1827 22.2787 88.653 22.5213 89.1694 22.6283C89.6715 22.7361 90.1764 22.7036 90.684 22.5308C91.184 22.3512 91.6434 22.0266 92.0621 21.557C92.4741 21.095 92.7441 20.6016 92.8722 20.0768C92.9859 19.5528 92.9639 19.0437 92.8063 18.5496C92.6343 18.0564 92.3362 17.6206 91.9121 17.2424Z" fill="#DDD7D0"/>
<path d="M80.1152 8.38375L79.3043 9.95224L79.212 10.2301L77.8558 12.8533C77.5436 13.4572 77.4748 14.01 77.6496 14.5116C77.8153 15.0086 78.2317 15.4295 78.8988 15.7744C79.3585 16.0121 79.8353 16.1615 80.3292 16.2226C80.8231 16.2838 81.2795 16.2627 81.6985 16.1594L81.7607 17.0998C81.2416 17.2199 80.6878 17.2305 80.0991 17.1318C79.5057 17.0421 78.9296 16.8527 78.3707 16.5638C77.4513 16.0884 76.8625 15.4927 76.6044 14.7766C76.3326 14.0649 76.4367 13.2448 76.9168 12.3164L79.1958 7.90837L80.1152 8.38375ZM82.5976 9.58148C83.1294 9.85645 83.5494 10.1821 83.8575 10.5584C84.1519 10.9391 84.3235 11.3363 84.3724 11.75C84.4166 12.1727 84.3338 12.5869 84.1241 12.9925C83.933 13.3621 83.6749 13.6513 83.3499 13.8603C83.0111 14.0735 82.5968 14.1678 82.107 14.143C81.6035 14.1226 81.0137 13.9376 80.3376 13.5881L77.8902 12.3227L78.2607 11.6061L80.6811 12.8574C81.3662 13.2116 81.9068 13.337 82.3031 13.2334C82.6904 13.1252 82.9772 12.8908 83.1636 12.5302C83.3733 12.1245 83.3834 11.7185 83.1937 11.312C83.004 10.9055 82.6253 10.5554 82.0574 10.2618C81.5165 9.98215 80.9893 9.86382 80.4759 9.90681C79.9488 9.95414 79.4739 10.1656 79.0513 10.5411L79.1775 9.76671C79.6001 9.39117 80.109 9.1802 80.7042 9.13378C81.2904 9.08271 81.9215 9.23194 82.5976 9.58148Z" fill="#DDD7D0"/>
<path d="M70.8789 4.96332C71.5172 5.12948 72.0982 5.37508 72.6217 5.70012C73.1428 6.03498 73.5295 6.38208 73.782 6.74142L73.0959 7.44364C72.843 7.12614 72.494 6.8151 72.049 6.51051C71.6015 6.21574 71.1076 5.99805 70.5675 5.85745C69.8309 5.66573 69.2712 5.64062 68.8884 5.78213C68.5029 5.93346 68.2604 6.20063 68.1607 6.58363C68.0865 6.86843 68.1223 7.11367 68.268 7.31937C68.4013 7.53234 68.605 7.71645 68.8792 7.8717C69.1508 8.03678 69.4606 8.19607 69.8087 8.34958C70.1567 8.50309 70.5021 8.66642 70.8451 8.83957C71.1781 9.01016 71.4728 9.20746 71.7291 9.43146C71.9828 9.66528 72.1684 9.93905 72.286 10.2528C72.3938 10.5639 72.3901 10.9405 72.2751 11.3824C72.1652 11.8047 71.9489 12.1521 71.6263 12.4247C71.3037 12.6972 70.8922 12.868 70.3919 12.937C69.8792 13.0132 69.2939 12.9657 68.6359 12.7945C68.135 12.6641 67.6521 12.465 67.187 12.1971C66.7194 11.9391 66.3517 11.6598 66.0839 11.3594L66.7591 10.6386C67.0414 10.9638 67.3663 11.2266 67.7335 11.4271C68.0982 11.6373 68.477 11.7936 68.8698 11.8959C69.5671 12.0774 70.1146 12.0888 70.5124 11.9302C70.8978 11.7789 71.1391 11.5166 71.2363 11.1435C71.3129 10.8488 71.2846 10.5951 71.1513 10.3821C71.0082 10.1666 70.8021 9.97136 70.5331 9.79647C70.2516 9.62883 69.9418 9.46954 69.6036 9.31859C69.2556 9.16508 68.9163 8.99812 68.5858 8.8177C68.2429 8.64455 67.9433 8.44598 67.687 8.22198C67.4184 8.00524 67.2302 7.74129 67.1224 7.43012C67.0023 7.12622 66.9972 6.76312 67.1071 6.34084C67.2247 5.88909 67.4546 5.5295 67.7969 5.26207C68.1268 5.0019 68.5566 4.84116 69.0864 4.77983C69.6038 4.72576 70.2013 4.78693 70.8789 4.96332Z" fill="#DDD7D0"/>
</svg>
