<svg width="48" height="48" viewBox="0 0 48 48" fill="none" xmlns="http://www.w3.org/2000/svg">
<path d="M14.5714 19.2857V35M33.4286 35V27.1429C33.4286 25.4758 32.7663 23.877 31.5875 22.6982C30.4087 21.5194 28.8099 20.8571 27.1429 20.8571C25.4758 20.8571 23.877 21.5194 22.6982 22.6982C21.5194 23.877 20.8571 25.4758 20.8571 27.1429V35V19.2857M13 14.5714H16.1429M5.14286 2H42.8571C43.6907 2 44.4901 2.33112 45.0795 2.92052C45.6689 3.50992 46 4.30932 46 5.14286V42.8571C46 43.6907 45.6689 44.4901 45.0795 45.0795C44.4901 45.6689 43.6907 46 42.8571 46H5.14286C4.30932 46 3.50992 45.6689 2.92052 45.0795C2.33112 44.4901 2 43.6907 2 42.8571V5.14286C2 4.30932 2.33112 3.50992 2.92052 2.92052C3.50992 2.33112 4.30932 2 5.14286 2Z" stroke="#9C528B" stroke-width="3.14286"/>
</svg>
