<svg width="47" height="40" viewBox="0 0 47 40" fill="none" xmlns="http://www.w3.org/2000/svg">
<path d="M39.6562 0C41.6039 0 43.4718 0.810437 44.8491 2.25302C46.2263 3.69561 47 5.65218 47 7.69231V32.3077C47 34.3478 46.2263 36.3044 44.8491 37.747C43.4718 39.1896 41.6039 40 39.6562 40H7.34375C5.39607 40 3.52815 39.1896 2.15093 37.747C0.773714 36.3044 0 34.3478 0 32.3077V7.69231C0 5.65218 0.773714 3.69561 2.15093 2.25302C3.52815 0.810437 5.39607 0 7.34375 0H39.6562ZM44.0625 12.1877L24.2461 24.4031C24.0588 24.5183 23.8494 24.5885 23.633 24.6088C23.4166 24.629 23.1986 24.5987 22.9948 24.52L22.7539 24.4031L2.9375 12.1938V32.3077C2.9375 33.5318 3.40173 34.7057 4.22806 35.5713C5.05439 36.4368 6.17514 36.9231 7.34375 36.9231H39.6562C40.8249 36.9231 41.9456 36.4368 42.7719 35.5713C43.5983 34.7057 44.0625 33.5318 44.0625 32.3077V12.1877ZM39.6562 3.07692H7.34375C6.17514 3.07692 5.05439 3.56318 4.22806 4.42874C3.40173 5.29429 2.9375 6.46823 2.9375 7.69231V8.62154L23.5 21.2923L44.0625 8.61539V7.69231C44.0625 6.46823 43.5983 5.29429 42.7719 4.42874C41.9456 3.56318 40.8249 3.07692 39.6562 3.07692Z" fill="#9C528B"/>
</svg>
