<svg width="47" height="47" viewBox="0 0 47 47" fill="none" xmlns="http://www.w3.org/2000/svg">
<path d="M36.8975 27.8366C37.571 27.8366 38.2139 27.959 38.8262 28.2038C39.4385 28.4486 39.9895 28.8157 40.4793 29.3053L45.5305 34.354C46.0051 34.8283 46.3648 35.3714 46.6097 35.9833C46.8546 36.5953 46.9847 37.2455 47 37.934C47 38.6071 46.8775 39.2497 46.6326 39.8616C46.3877 40.4736 46.0204 41.0244 45.5305 41.5139L45.2091 41.8352C44.3825 42.6614 43.6249 43.3957 42.9361 44.0383C42.2472 44.6808 41.5278 45.2163 40.7778 45.6447C40.0278 46.0731 39.1936 46.4096 38.2751 46.6544C37.3567 46.8992 36.2623 47.014 34.9918 46.9986C33.0785 46.9986 31.1116 46.7003 29.0911 46.1037C27.0706 45.507 25.0654 44.6808 23.0755 43.6252C21.0856 42.5696 19.1264 41.3151 17.1977 39.8616C15.2691 38.4082 13.4552 36.8248 11.7562 35.1113C10.0571 33.3978 8.48052 31.5772 7.02638 29.6495C5.57224 27.7219 4.33239 25.7636 3.30684 23.7747C2.28128 21.7858 1.47002 19.7893 0.87306 17.7851C0.276096 15.781 -0.0147328 13.8533 0.000574004 12.0021C0.000574004 10.7323 0.107721 9.64604 0.322016 8.7434C0.536311 7.84076 0.865406 7.01461 1.3093 6.26496C1.7532 5.5153 2.28894 4.8039 2.91651 4.13074C3.54409 3.45758 4.27881 2.70028 5.12069 1.85883L5.48805 1.49166C5.96256 1.01739 6.50595 0.650209 7.11822 0.390126C7.73049 0.130042 8.38103 0 9.06983 0C9.74333 0 10.3862 0.130042 10.9985 0.390126C11.6108 0.650209 12.1618 1.01739 12.6516 1.49166L17.7028 6.54034C18.1774 7.01461 18.5371 7.55773 18.782 8.16969C19.0269 8.78165 19.157 9.43186 19.1723 10.1203C19.1723 10.7935 19.0575 11.3901 18.8279 11.9103C18.5983 12.4305 18.3151 12.9124 17.9784 13.3561C17.6416 13.7997 17.2743 14.1899 16.8763 14.5264C16.4783 14.863 16.1033 15.2072 15.7512 15.5591C15.3992 15.911 15.116 16.2476 14.9017 16.5689C14.6874 16.8901 14.5726 17.265 14.5573 17.6933C14.5573 18.2747 14.764 18.7719 15.1772 19.185L27.8283 31.8297C28.2416 32.2427 28.739 32.4493 29.3207 32.4493C29.7187 32.4493 30.086 32.3345 30.4228 32.105C30.7595 31.8755 31.1039 31.5925 31.456 31.2559C31.808 30.9194 32.1524 30.5522 32.4892 30.1544C32.8259 29.7566 33.2163 29.3818 33.6602 29.0299C34.104 28.678 34.5786 28.395 35.0837 28.1808C35.5888 27.9666 36.1934 27.8519 36.8975 27.8366ZM34.9918 44.0612C36.0939 44.0612 37.0123 43.9618 37.7471 43.7629C38.4818 43.564 39.1553 43.2657 39.7676 42.8679C40.3798 42.4701 40.9615 41.9806 41.5125 41.3992C42.0636 40.8178 42.7141 40.16 43.4641 39.4256C43.8774 39.0126 44.0841 38.5153 44.0841 37.934C44.0841 37.6586 43.9769 37.3373 43.7626 36.9701C43.5483 36.603 43.2575 36.2052 42.8901 35.7768C42.5228 35.3484 42.1324 34.9277 41.7192 34.5146C41.3059 34.1016 40.8773 33.6885 40.4334 33.2754C39.9895 32.8623 39.5992 32.5028 39.2624 32.1968C38.9257 31.8908 38.6425 31.6231 38.4129 31.3936C37.9996 30.9806 37.4945 30.774 36.8975 30.774C36.4996 30.774 36.1322 30.8888 35.7954 31.1182C35.4587 31.3477 35.1219 31.6308 34.7852 31.9673C34.4485 32.3039 34.104 32.6711 33.752 33.0689C33.3999 33.4666 33.002 33.8415 32.5581 34.1934C32.1142 34.5452 31.6397 34.8283 31.1345 35.0424C30.6294 35.2566 30.0248 35.3714 29.3207 35.3867C28.6472 35.3867 28.0043 35.2643 27.392 35.0195C26.7798 34.7747 26.2287 34.4075 25.7389 33.918L13.0879 21.2733C12.6133 20.799 12.2536 20.2559 12.0087 19.644C11.7638 19.032 11.6337 18.3818 11.6184 17.6933C11.6184 17.0202 11.7332 16.4235 11.9628 15.9034C12.1924 15.3832 12.4756 14.9013 12.8123 14.4576C13.1491 14.0139 13.5164 13.6238 13.9144 13.2872C14.3124 12.9506 14.6874 12.5988 15.0395 12.2316C15.3915 11.8644 15.6747 11.5278 15.889 11.2218C16.1033 10.9159 16.2181 10.5487 16.2334 10.1203C16.2334 9.52365 16.0268 9.01878 15.6135 8.60571C15.4145 8.40682 15.1543 8.13144 14.8328 7.77956C14.5114 7.42768 14.1517 7.03756 13.7537 6.60919C13.3557 6.18081 12.9424 5.75244 12.5139 5.32407C12.0853 4.89569 11.6567 4.49792 11.2281 4.13074C10.7995 3.76356 10.4092 3.48053 10.0571 3.28164C9.70506 3.08276 9.37597 2.96801 9.06983 2.93742C8.48818 2.93742 7.99071 3.14395 7.57742 3.55703L5.62581 5.50765C5.05946 6.07372 4.56964 6.65508 4.15636 7.25174C3.74308 7.84841 3.43694 8.51392 3.23795 9.24827C3.03897 9.98262 2.93182 10.9006 2.91651 12.0021C2.91651 13.7156 3.19203 15.4826 3.74308 17.3032C4.29412 19.1238 5.06711 20.9444 6.06205 22.765C7.05699 24.5856 8.22796 26.3755 9.57496 28.1349C10.922 29.8943 12.3914 31.5696 13.9833 33.1607C15.5752 34.7518 17.2513 36.2052 19.0116 37.5209C20.7719 38.8366 22.5627 39.984 24.3843 40.9632C26.2058 41.9423 28.012 42.6996 29.8028 43.2351C31.5937 43.7706 33.3234 44.0459 34.9918 44.0612Z" fill="#9C528B"/>
</svg>
